<?xml version="1.0"?><svg fill="#000000" xmlns="http://www.w3.org/2000/svg"  viewBox="0 0 16 16" width="50px" height="50px">    <path d="M14.5,11c-0.095,0-2.165-0.024-2.464-2H12.5C13.327,9,14,8.327,14,7.5S13.327,6,12.5,6H12V5.198C12,2.996,10.495,1,8,1 S4,2.996,4,5.198V6H3.5C2.673,6,2,6.673,2,7.5S2.673,9,3.5,9h0.464c-0.299,1.976-2.369,2-2.464,2C1.224,11,1,11.224,1,11.5 c0,1.249,0.914,1.491,1.46,1.635C3,13.278,3,13.32,3,13.5C3,13.776,3.224,14,3.5,14h1.157c0.338,0,0.652,0.103,0.883,0.289 c0,0,0,0,0,0c0.406,0.327,1.162,0.716,2.46,0.716s2.054-0.389,2.46-0.716c0,0,0,0,0,0C10.691,14.103,11.005,14,11.343,14H12.5 c0.276,0,0.5-0.224,0.5-0.5c0-0.18,0-0.222,0.54-0.365C14.086,12.991,15,12.749,15,11.5C15,11.224,14.776,11,14.5,11z M13.284,12.168c-0.386,0.102-0.98,0.259-1.2,0.832h-0.741c-0.566,0-1.102,0.181-1.511,0.51C9.552,13.736,9.007,14.005,8,14.005 s-1.552-0.269-1.833-0.495C5.759,13.181,5.223,13,4.657,13H3.916c-0.219-0.572-0.814-0.729-1.2-0.832 c-0.288-0.076-0.47-0.13-0.578-0.228C3.374,11.72,5,10.833,5,8.5C5,8.224,4.776,8,4.5,8h-1C3.224,8,3,7.776,3,7.5S3.224,7,3.5,7h1 C4.776,7,5,6.776,5,6.5V5.198C5,3.519,6,2,8,2s3,1.519,3,3.198V6.5C11,6.776,11.224,7,11.5,7h1C12.776,7,13,7.224,13,7.5 S12.776,8,12.5,8h-1C11.224,8,11,8.224,11,8.5c0,2.333,1.626,3.22,2.862,3.441C13.754,12.039,13.572,12.092,13.284,12.168z"/></svg>