<?xml version="1.0" encoding="utf-8"?>
<!-- Generator: Adobe Illustrator 25.1.0, SVG Export Plug-In . SVG Version: 6.00 Build 0)  -->
<svg version="1.1" id="Layer_1" xmlns="http://www.w3.org/2000/svg" xmlns:xlink="http://www.w3.org/1999/xlink" x="0px" y="0px"
	 viewBox="0 0 612 612" style="enable-background:new 0 0 612 612;" xml:space="preserve">
<style type="text/css">
	.st0{fill:#FFFFFF;stroke:#FFFFFF;stroke-miterlimit:10;}
</style>
<path class="st0" d="M114.7,463.9l-14.1,14l-6.5-6.4l14.1-14L114.7,463.9z M116.7,465.9l-14.1,14l6.5,6.4l14.1-14L116.7,465.9z
	 M125.3,474.3l-14.1,14l6.5,6.4l14.1-14L125.3,474.3z M119.7,496.8l6.5,6.4l14.1-14l-6.5-6.4L119.7,496.8z M591.9,40.8
	c0,9.3-6.1,17.1-15.1,19.3l-2.6,0.6c-2.3,0.6-4.3,2.1-5.5,4.2l-29.9,52.6c-2.4,3.9-6.7,6.3-11.4,6.3c-2.1,0-4-0.4-5.9-1.3
	c-2.5-1.2-5.3-1.8-8.1-1.8c-5.1,0-9.9,2-13.4,5.5l-7,7L263.8,365.3c-2.9,6.5-2.5,11.7,1.3,15.4c5.5,5.4,14.9,5,29-1.4
	c0.6-0.2,1.3-0.6,2.4-1.1c4.5-2.2,9.1-2.1,13.1,0.2c4.7,2.8,7.8,8.5,8.1,14.9c0.4,7.7-2.6,14.4-9.2,21c-7.8,7.7-25.7,16.5-38.7,21.6
	c-12.8,5-22.2,15.9-25.3,29.1c-4.6,20-11.3,35.8-19.9,47c-2.8,4.7-6.2,9.1-10.2,13c-12.5,12.4-29.1,19.2-46.7,19.2c0,0,0,0,0,0
	c-17.7,0-34.2-6.8-46.7-19.2l-47.2-46.8c-12.5-12.4-19.4-28.8-19.4-46.3c0-17.5,6.9-34,19.4-46.3c3.7-3.6,7.7-6.8,12.1-9.5l-0.2-0.2
	l6.1-3c4.7-2.2,9.6-3.9,14.6-5l28.6-9.7c19.3-6.6,34.2-21.1,40.9-40c8.9-24.9,20.5-41.9,35.5-52.1c0.2-0.2,0.7-0.5,1.3-1
	c28.2-21.3,47.8-26.1,58.1-14.2c1.6,1.8,2.3,4.1,2,6.7c-0.9,8.7-14.1,19.8-28.2,30.5c-1.2,0.9-2.3,1.7-2.7,2.1
	c-3.5,2.9-7.2,9.3-7.5,15.9c-0.2,4.4,1.1,8,3.9,10.7c2.4,2.4,5.7,3.6,9.9,3.7L466.4,110c2-1.9,3.5-4.3,4.3-7l1.4-4.3
	c1.5-4.7,4.6-8.7,8.8-11.2l4.5-3.5l-3.8-5.2c-1.5-2-1-4.9,1-6.4c2.1-1.5,4.9-1,6.4,1l3.5,4.9l13.8-10.8l-3.8-5.2c-1.5-2-1-4.9,1-6.4
	c2.1-1.5,4.9-1,6.4,1l3.5,4.9l13.8-10.8l-4-5.5c-1.5-2-1-4.9,1-6.4c2.1-1.5,4.9-1,6.4,1l3.8,5.2l13.8-10.8l-4.1-5.6
	c-1.5-2-1-4.9,1-6.4c2.1-1.5,4.9-1,6.4,1l3.8,5.3l3.4-2.7c3.9-3.2,8.6-5,13.4-5c1.7,0,3.3,0.2,5,0.6
	C586.2,24.4,591.9,31.7,591.9,40.8z M258.7,387.2c-3.1-3.1-5-6.8-5.7-10.9l-9.3,9.4l-31.2-30.9l27.4-26.4c-3.2-1.1-6-2.8-8.3-5.1
	c-4.6-4.6-6.8-10.6-6.5-17.6c0.4-8.4,4.7-17.5,10.8-22.5c0.6-0.5,1.6-1.3,3.1-2.4c22.4-17,24.6-22.6,24.6-24.1
	c-6.4-7-22.9-1.3-45.4,15.7c-0.8,0.6-1.4,1.1-1.7,1.3c-13.2,8.9-23.9,24.9-32,47.6c-7.7,21.5-24.6,38.1-46.5,45.5l-29.4,10
	c-4.1,0.9-8.2,2.2-12.1,4l-0.8,0.4c-5.7,2.8-10.9,6.4-15.4,10.8c-10.8,10.7-16.7,24.8-16.7,39.9c0,15.1,5.9,29.3,16.7,39.9
	l47.2,46.8c10.7,10.7,25,16.5,40.2,16.5c0,0,0,0,0,0c15.2,0,29.5-5.9,40.2-16.5c3.5-3.4,6.4-7.3,8.9-11.4l0.3-0.6l0.2-0.2
	c9.6-12.6,15.2-30.6,18.1-43.4c3.7-16.1,15.3-29.4,30.9-35.6c15.6-6.1,30.2-14.2,35.6-19.6c4.8-4.8,6.8-9,6.6-14.2
	c-0.2-3.4-1.6-6.3-3.6-7.5c-1.3-0.7-2.7-0.7-4.3,0.1c-1.3,0.6-2.1,1-2.8,1.3C291.4,390.6,271.3,399.7,258.7,387.2z M582.7,40.8
	c0-3.8-2-8.5-7.6-9.9c-3.6-0.9-7.1,0-10.3,2.6L486.1,95l-0.3,0.1c-2.4,1.4-4.2,3.7-5,6.3l-1.4,4.3c-1.3,4.1-3.6,7.8-6.7,10.8
	L225.6,354.9l18,17.9l242.8-245.9l7.1-7c5.3-5.3,12.4-8.2,19.9-8.2c4.1,0,8.3,0.9,12,2.7c2,0.9,4.4,0.3,5.5-1.4l29.8-52.4
	c2.4-4.2,6.5-7.3,11.2-8.5l2.6-0.6C580.6,49.8,582.7,44.7,582.7,40.8z M187.1,454.9l-30.4-30.2l17.5-17.3l30.4,30.2L187.1,454.9z
	 M187.1,442l4.5-4.5l-17.5-17.3l-4.5,4.5L187.1,442z M193,421.6l-30.4-30.2l17.5-17.3l30.4,30.2L193,421.6z M193,408.7l4.5-4.5
	l-17.5-17.3l-4.5,4.5L193,408.7z M216.4,491.1c0.8,7-4.3,13.4-11.4,14.2c-0.5,0.1-1,0.1-1.5,0.1c0,0,0,0,0,0
	c-6.6,0-12.1-4.9-12.9-11.4c-0.4-3.4,0.6-6.8,2.7-9.5c2.2-2.7,5.2-4.4,8.7-4.8c0.5-0.1,1-0.1,1.5-0.1
	C210.1,479.7,215.6,484.6,216.4,491.1z M207.3,492.2c-0.2-1.9-1.8-3.3-3.8-3.3c-0.1,0-0.3,0-0.4,0c-1,0.1-1.9,0.6-2.5,1.4
	c-0.6,0.8-0.9,1.8-0.8,2.8c0.2,1.9,1.8,3.3,3.8,3.3c0,0,0,0,0,0c0.1,0,0.3,0,0.4,0C206,496.1,207.5,494.2,207.3,492.2z M195,514.1
	c0.8,7-4.3,13.4-11.4,14.2c-0.5,0.1-1,0.1-1.5,0.1c0,0,0,0,0,0c-6.6,0-12.1-4.9-12.9-11.4c-0.4-3.4,0.6-6.8,2.7-9.5
	c2.2-2.7,5.2-4.4,8.7-4.8c0.5-0.1,1-0.1,1.5-0.1C188.7,502.6,194.2,507.5,195,514.1z M185.8,515.1c-0.2-1.9-1.8-3.3-3.8-3.3
	c-0.1,0-0.3,0-0.4,0c-1,0.1-1.9,0.6-2.5,1.4c-0.6,0.8-0.9,1.8-0.8,2.8c0.2,1.9,1.8,3.3,3.8,3.3c0.1,0,0.3,0,0.4,0
	C184.6,519,186.1,517.1,185.8,515.1z"/>
</svg>
