<?xml version="1.0" encoding="utf-8"?>
<!-- Generator: Adobe Illustrator 25.1.0, SVG Export Plug-In . SVG Version: 6.00 Build 0)  -->
<svg version="1.1" id="Capa_1" xmlns="http://www.w3.org/2000/svg" xmlns:xlink="http://www.w3.org/1999/xlink" x="0px" y="0px"
	 viewBox="0 0 246.8 246.8" style="enable-background:new 0 0 246.8 246.8;" xml:space="preserve">
<style type="text/css">
	.st0{fill:#FFFFFF;}
</style>
<g>
	<path class="st0" d="M123.4,93.7c-33.4,0-60.6,27.2-60.6,60.6c0,16.4,6.5,31.2,17.1,42.1v11c0,4.1,3.4,7.5,7.5,7.5
		c4,0,7.3-3.2,7.5-7.1c8.5,4.5,18.2,7.1,28.5,7.1s20-2.6,28.5-7.1c0.2,4,3.5,7.1,7.5,7.1c4.1,0,7.5-3.4,7.5-7.5v-11
		c10.6-10.9,17.1-25.8,17.1-42.1C184,120.9,156.8,93.7,123.4,93.7z M77.8,154.3c0-25.1,20.4-45.6,45.6-45.6s45.6,20.4,45.6,45.6
		s-20.4,45.6-45.6,45.6S77.8,179.4,77.8,154.3z"/>
	<path class="st0" d="M7.5,87.2h61.7c4.1,0,7.5-3.4,7.5-7.5s-3.4-7.5-7.5-7.5H7.5c-4.1,0-7.5,3.4-7.5,7.5S3.4,87.2,7.5,87.2z"/>
	<path class="st0" d="M45.9,183.5v-77.1h23.4c4.1,0,7.5-3.4,7.5-7.5s-3.4-7.5-7.5-7.5H7.5c-4.1,0-7.5,3.4-7.5,7.5s3.4,7.5,7.5,7.5
		h23.4v77.1l-9.4,9.4c-2.9,2.9-2.9,7.7,0,10.6c2.9,2.9,7.7,2.9,10.6,0l6.3-6.3l6.3,6.3c1.5,1.5,3.4,2.2,5.3,2.2
		c1.9,0,3.8-0.7,5.3-2.2c2.9-2.9,2.9-7.7,0-10.6L45.9,183.5z"/>
	<path class="st0" d="M177.6,87.2h61.7c4.1,0,7.5-3.4,7.5-7.5s-3.4-7.5-7.5-7.5h-61.7c-4.1,0-7.5,3.4-7.5,7.5S173.5,87.2,177.6,87.2
		z"/>
	<path class="st0" d="M239.3,91.4h-61.7c-4.1,0-7.5,3.4-7.5,7.5s3.4,7.5,7.5,7.5H201v77.1l-9.4,9.4c-2.9,2.9-2.9,7.7,0,10.6
		c2.9,2.9,7.7,2.9,10.6,0l6.3-6.3l6.3,6.3c1.5,1.5,3.4,2.2,5.3,2.2s3.8-0.7,5.3-2.2c2.9-2.9,2.9-7.7,0-10.6l-9.4-9.4v-77.1h23.4
		c4.1,0,7.5-3.4,7.5-7.5S243.5,91.4,239.3,91.4z"/>
</g>
</svg>
