<?xml version="1.0" encoding="utf-8"?>
<!-- Generator: Adobe Illustrator 25.1.0, SVG Export Plug-In . SVG Version: 6.00 Build 0)  -->
<svg version="1.1" id="Layer_1" xmlns="http://www.w3.org/2000/svg" xmlns:xlink="http://www.w3.org/1999/xlink" x="0px" y="0px"
	 viewBox="0 0 512 512" style="enable-background:new 0 0 512 512;" xml:space="preserve">
<style type="text/css">
	.st0{fill:#FFFFFF;}
</style>
<g>
	<g>
		<path class="st0" d="M473.5,24.6c-1.4-3.4-4.8-5.2-8.2-4.4l-93.5,23.5c-3.7,0.9-6.1,4.9-5.4,8.9l2.1,11.9l-99.4,152.4L24.5,397.3
			c-2.7,2-3.8,5.6-2.7,8.9c1.1,3.3,4.1,5.4,7.3,5.1l157.2-13l49.9,89.9c1.3,2.4,3.7,3.8,6.2,3.8c0.4,0,0.7,0,1.1-0.1
			c2.9-0.5,5.2-2.8,5.9-5.8l54.8-245l96.6-154.9L471.1,34C473.9,31.9,474.9,28,473.5,24.6z M239.6,464.1l-43.2-77.8
			c-1.4-2.5-4-4-6.7-3.7L54.7,393.7l191-140.8l-11.7,18c-1.1,1.7-1.5,3.8-1.2,5.8c0.3,2,1.4,3.8,3,5l23.5,17.4
			c1.2,0.9,2.6,1.4,4.1,1.4c0.4,0,0.9,0,1.3-0.1c1.9-0.4,3.6-1.6,4.6-3.3l12-19.2L239.6,464.1z M261.4,282l-11.6-8.6L377.9,76.9
			l7.8,5.8L261.4,282z M395.6,71.3l-13-9.6l-0.8-4.7l50.1-12.6L395.6,71.3z"/>
	</g>
</g>
<g>
	<g>
		<path class="st0" d="M218.6,362.1l-23.5-17.4c-3.3-2.4-7.7-1.5-10,2c-2.3,3.5-1.4,8.3,1.8,10.7l23.5,17.4c1.2,0.9,2.7,1.4,4.1,1.4
			c2.3,0,4.5-1.2,5.9-3.3C222.7,369.3,221.9,364.5,218.6,362.1z"/>
	</g>
</g>
<g>
	<g>
		<path class="st0" d="M239.6,329.6L216,312.2c-3.3-2.4-7.7-1.5-10,2c-2.3,3.5-1.4,8.3,1.8,10.7l23.5,17.4c1.2,0.9,2.7,1.4,4.1,1.4
			c2.3,0,4.5-1.2,5.9-3.3C243.7,336.8,242.9,332,239.6,329.6z"/>
	</g>
</g>
<g>
	<g>
		<ellipse class="st0" cx="231.3" cy="408.5" rx="7.2" ry="7.7"/>
	</g>
</g>
<g>
	<g>
		<ellipse class="st0" cx="238" cy="385.4" rx="7.2" ry="7.7"/>
	</g>
</g>
</svg>
