<?xml version="1.0" encoding="utf-8"?>
<!-- Generator: Adobe Illustrator 25.1.0, SVG Export Plug-In . SVG Version: 6.00 Build 0)  -->
<svg version="1.1" id="Capa_1" xmlns="http://www.w3.org/2000/svg" xmlns:xlink="http://www.w3.org/1999/xlink" x="0px" y="0px"
	 viewBox="0 0 297 297" style="enable-background:new 0 0 297 297;" xml:space="preserve">
<style type="text/css">
	.st0{fill:#FFFFFF;}
</style>
<g>
	<path class="st0" d="M130.4,65.4h36.2c5.5,0,10-4.5,10-10s-4.5-10-10-10h-36.2c-5.5,0-10,4.5-10,10S124.9,65.4,130.4,65.4z"/>
	<path class="st0" d="M130.4,101.7h36.2c5.5,0,10-4.5,10-10s-4.5-10-10-10h-36.2c-5.5,0-10,4.5-10,10S124.9,101.7,130.4,101.7z"/>
	<path class="st0" d="M176.5,128.1c0-5.5-4.5-10-10-10h-36.2c-5.5,0-10,4.5-10,10c0,5.5,4.5,10,10,10h36.2
		C172.1,138,176.5,133.6,176.5,128.1z"/>
	<path class="st0" d="M229.5,282l-17.8-35.8c-1.7-3.4-5.1-5.5-8.9-5.5h-44.3v-57.3h5.5c26.9,0,48.7-21.9,48.7-48.7v-86
		C212.7,21.9,190.9,0,164,0h-31c-26.9,0-48.7,21.9-48.7,48.7v86c0,26.9,21.9,48.7,48.7,48.7h5.5v57.3H94.2c-3.8,0-7.2,2.1-8.9,5.5
		l-18.1,36.3c-1.5,3.1-1.4,6.8,0.4,9.7c1.8,2.9,5,4.7,8.5,4.7h144.7c0,0,0,0,0,0c5.5,0,10-4.5,10-10
		C230.8,285.2,230.4,283.5,229.5,282z M104.2,134.7v-86c0-15.9,12.9-28.8,28.8-28.8h31c15.9,0,28.8,12.9,28.8,28.8v86
		c0,15.9-12.9,28.8-28.8,28.8h-31C117.1,163.5,104.2,150.6,104.2,134.7z M92.2,277.1l8.2-16.4h96.2l8.2,16.4L92.2,277.1L92.2,277.1z
		"/>
</g>
</svg>
